<svg xmlns="http://www.w3.org/2000/svg" xmlns:xlink="http://www.w3.org/1999/xlink" width="500" zoomAndPan="magnify" viewBox="0 0 375 374.999991" height="500" preserveAspectRatio="xMidYMid meet" version="1.0"><defs><g/><clipPath id="4f76a98a00"><path d="M 78.585938 79.898438 L 293.835938 79.898438 L 293.835938 295.148438 L 78.585938 295.148438 Z M 78.585938 79.898438 " clip-rule="nonzero"/></clipPath><clipPath id="64fa534954"><path d="M 186.210938 79.898438 C 126.773438 79.898438 78.585938 128.085938 78.585938 187.523438 C 78.585938 246.964844 126.773438 295.148438 186.210938 295.148438 C 245.652344 295.148438 293.835938 246.964844 293.835938 187.523438 C 293.835938 128.085938 245.652344 79.898438 186.210938 79.898438 " clip-rule="nonzero"/></clipPath><clipPath id="776dd58827"><path d="M 85 87 L 286 87 L 286 288 L 85 288 Z M 85 87 " clip-rule="nonzero"/></clipPath><clipPath id="ced102020e"><path d="M 44.382812 181.109375 L 159.160156 76.566406 L 294.003906 224.609375 L 179.230469 329.152344 Z M 44.382812 181.109375 " clip-rule="nonzero"/></clipPath><clipPath id="54ae6c12bc"><path d="M 44.382812 181.109375 L 192.425781 46.265625 L 327.273438 194.308594 L 179.230469 329.152344 Z M 44.382812 181.109375 " clip-rule="nonzero"/></clipPath></defs><g clip-path="url(#4f76a98a00)"><g clip-path="url(#64fa534954)"><path stroke-linecap="butt" transform="matrix(0.750204, 0, 0, 0.750204, 78.587519, 79.899897)" fill="none" stroke-linejoin="miter" d="M 143.458838 -0.00194567 C 64.230406 -0.00194567 -0.00210855 64.230569 -0.00210855 143.459001 C -0.00210855 222.69264 64.230406 286.919948 143.458838 286.919948 C 222.692477 286.919948 286.919785 222.69264 286.919785 143.459001 C 286.919785 64.230569 222.692477 -0.00194567 143.458838 -0.00194567 " stroke="#bd905a" stroke-width="2" stroke-opacity="1" stroke-miterlimit="4"/></g></g><g clip-path="url(#776dd58827)"><g clip-path="url(#ced102020e)"><g clip-path="url(#54ae6c12bc)"><path fill="#bd905a" d="M 253.25 261.730469 C 212.445312 298.898438 148.972656 295.933594 111.804688 255.132812 C 74.640625 214.328125 77.601562 150.851562 118.40625 113.6875 C 159.207031 76.523438 222.683594 79.484375 259.847656 120.285156 C 297.015625 161.089844 294.054688 224.566406 253.25 261.730469 Z M 119.402344 114.78125 C 79.179688 151.414062 76.265625 213.917969 112.898438 254.136719 C 149.535156 294.355469 212.035156 297.269531 252.253906 260.636719 C 292.472656 224.003906 295.390625 161.503906 258.753906 121.28125 C 222.121094 81.0625 159.621094 78.148438 119.402344 114.78125 Z M 119.402344 114.78125 " fill-opacity="1" fill-rule="nonzero"/></g></g></g><g fill="#bd905a" fill-opacity="1"><g transform="translate(113.237143, 214.099205)"><g><path d="M 1.628906 -54.300781 L 1.628906 -46.96875 L 2.171875 -46.96875 C 2.171875 -47.132812 2.117188 -46.96875 2.117188 -47.1875 C 2.117188 -50.824219 8.960938 -53.757812 18.300781 -53.757812 L 18.300781 -15.09375 C 18.300781 -4.398438 17.972656 -0.542969 13.304688 -0.542969 L 13.304688 0 L 27.476562 0 L 27.476562 -0.542969 C 22.804688 -0.542969 22.914062 -4.398438 22.914062 -15.09375 L 22.914062 -53.757812 C 32.253906 -53.757812 39.097656 -50.824219 39.097656 -47.1875 C 39.097656 -46.96875 39.042969 -47.132812 39.042969 -46.96875 L 39.585938 -46.96875 L 39.585938 -54.300781 Z M 1.628906 -54.300781 "/></g></g></g><g fill="#bd905a" fill-opacity="1"><g transform="translate(154.445461, 214.099205)"><g><path d="M 1.628906 -54.300781 L 1.628906 -53.757812 C 6.296875 -53.757812 6.625 -49.902344 6.625 -39.203125 L 6.625 -15.09375 C 6.625 -4.398438 6.296875 -0.542969 1.628906 -0.542969 L 1.628906 0 L 16.289062 0 L 16.289062 -0.542969 C 11.621094 -0.542969 7.167969 -4.453125 7.167969 -20.253906 L 7.167969 -27.148438 L 7.222656 -50.445312 C 15.476562 -32.742188 20.363281 -22.207031 28.886719 -3.964844 L 29.375 -3.964844 C 36.054688 -21.882812 41.539062 -36.816406 47.402344 -52.507812 L 47.402344 -15.09375 C 47.402344 -4.398438 47.078125 -0.542969 42.410156 -0.542969 L 42.410156 0 L 57.070312 0 L 57.070312 -0.542969 C 52.398438 -0.542969 52.074219 -4.398438 52.074219 -15.09375 L 52.074219 -39.203125 C 52.074219 -49.902344 52.398438 -53.757812 57.070312 -53.757812 L 57.070312 -54.300781 L 47.511719 -54.300781 L 31.222656 -10.535156 L 10.371094 -54.300781 Z M 1.628906 -54.300781 "/></g></g></g><g fill="#bd905a" fill-opacity="1"><g transform="translate(213.136104, 214.099205)"><g><path d="M 1.628906 -9.503906 C 1.628906 -3.855469 5.210938 1.085938 11.511719 1.085938 C 22.316406 1.085938 28.671875 -8.472656 28.671875 -21.664062 C 28.671875 -24.273438 28.5625 -26.445312 28.34375 -28.183594 L 35.078125 -10.425781 C 37.140625 -4.941406 37.414062 -0.542969 29.757812 -0.542969 L 29.757812 0 L 47.566406 0 L 47.566406 -0.542969 C 44.253906 -0.542969 42.515625 -3.53125 40.128906 -9.503906 L 22.75 -55.386719 L 22.207031 -55.386719 C 18.789062 -46.371094 16.777344 -40.996094 13.464844 -32.253906 C 12.921875 -30.84375 13.195312 -29.375 14.714844 -29.375 C 17.808594 -29.375 19.4375 -35.078125 22.046875 -35.078125 C 22.75 -35.078125 23.347656 -34.644531 23.347656 -33.613281 C 23.347656 -27.964844 1.628906 -22.859375 1.628906 -9.503906 Z M 6.246094 -10.535156 C 6.246094 -23.945312 23.945312 -26.226562 23.945312 -33.503906 C 23.945312 -34.914062 23.1875 -35.621094 22.15625 -35.621094 C 19.277344 -35.621094 17.265625 -29.917969 14.769531 -29.917969 C 13.902344 -29.917969 13.464844 -30.570312 14.171875 -32.472656 L 20.417969 -49.085938 L 26.988281 -31.765625 C 27.964844 -28.5625 28.128906 -25.574219 28.128906 -21.558594 C 28.128906 -12.652344 23.835938 -1.519531 14.769531 -1.519531 C 9.449219 -1.519531 6.246094 -5.429688 6.246094 -10.535156 Z M 6.246094 -10.535156 "/></g></g></g><g fill="#bd905a" fill-opacity="1"><g transform="translate(165.092235, 253.937587)"><g><path d="M 4.421875 0 L 1.3125 0 L 0.359375 0.03125 C 0.285156 0.03125 0.25 -0.00390625 0.25 -0.078125 C 0.25 -0.148438 0.28125 -0.1875 0.34375 -0.1875 L 0.578125 -0.203125 C 0.691406 -0.210938 0.785156 -0.25 0.859375 -0.3125 C 0.929688 -0.375 0.96875 -0.453125 0.96875 -0.546875 L 0.96875 -5.265625 C 0.96875 -5.460938 0.835938 -5.578125 0.578125 -5.609375 L 0.34375 -5.625 C 0.28125 -5.625 0.25 -5.660156 0.25 -5.734375 C 0.25 -5.816406 0.285156 -5.859375 0.359375 -5.859375 L 1.3125 -5.8125 L 4.25 -5.8125 C 4.351562 -5.8125 4.4375 -5.78125 4.5 -5.71875 C 4.570312 -5.65625 4.613281 -5.578125 4.625 -5.484375 L 4.75 -4.71875 C 4.757812 -4.625 4.71875 -4.578125 4.625 -4.578125 C 4.53125 -4.578125 4.472656 -4.617188 4.453125 -4.703125 C 4.367188 -4.972656 4.242188 -5.160156 4.078125 -5.265625 C 3.910156 -5.378906 3.679688 -5.4375 3.390625 -5.4375 L 2.078125 -5.4375 C 1.953125 -5.4375 1.851562 -5.398438 1.78125 -5.328125 C 1.707031 -5.265625 1.671875 -5.171875 1.671875 -5.046875 L 1.671875 -3.296875 C 1.671875 -3.222656 1.707031 -3.1875 1.78125 -3.1875 L 3.328125 -3.1875 C 3.398438 -3.1875 3.457031 -3.207031 3.5 -3.25 C 3.550781 -3.289062 3.582031 -3.328125 3.59375 -3.359375 C 3.601562 -3.390625 3.625 -3.453125 3.65625 -3.546875 L 3.6875 -3.65625 C 3.707031 -3.71875 3.75 -3.75 3.8125 -3.75 C 3.882812 -3.75 3.921875 -3.707031 3.921875 -3.625 L 3.875 -2.921875 L 3.921875 -2.25 C 3.921875 -2.175781 3.882812 -2.132812 3.8125 -2.125 C 3.738281 -2.125 3.695312 -2.160156 3.6875 -2.234375 L 3.671875 -2.375 C 3.617188 -2.664062 3.503906 -2.8125 3.328125 -2.8125 L 1.765625 -2.8125 C 1.703125 -2.8125 1.671875 -2.769531 1.671875 -2.6875 L 1.671875 -0.765625 C 1.671875 -0.648438 1.707031 -0.554688 1.78125 -0.484375 C 1.851562 -0.410156 1.953125 -0.375 2.078125 -0.375 L 3.453125 -0.375 C 3.734375 -0.375 3.976562 -0.445312 4.1875 -0.59375 C 4.394531 -0.738281 4.539062 -0.945312 4.625 -1.21875 C 4.65625 -1.300781 4.703125 -1.34375 4.765625 -1.34375 C 4.828125 -1.34375 4.867188 -1.328125 4.890625 -1.296875 C 4.921875 -1.265625 4.929688 -1.234375 4.921875 -1.203125 L 4.796875 -0.328125 C 4.785156 -0.234375 4.742188 -0.15625 4.671875 -0.09375 C 4.609375 -0.03125 4.523438 0 4.421875 0 Z M 4.421875 0 "/></g></g></g><g fill="#bd905a" fill-opacity="1"><g transform="translate(171.613438, 253.937587)"><g><path d="M 3.296875 -1.078125 C 3.296875 -0.722656 3.15625 -0.4375 2.875 -0.21875 C 2.59375 -0.0078125 2.25 0.09375 1.84375 0.09375 C 1.445312 0.09375 1.113281 0.046875 0.84375 -0.046875 C 0.582031 -0.140625 0.453125 -0.242188 0.453125 -0.359375 L 0.453125 -1.09375 C 0.453125 -1.1875 0.488281 -1.234375 0.5625 -1.234375 C 0.644531 -1.234375 0.695312 -1.1875 0.71875 -1.09375 C 0.894531 -0.519531 1.253906 -0.234375 1.796875 -0.234375 C 2.046875 -0.234375 2.25 -0.296875 2.40625 -0.421875 C 2.570312 -0.546875 2.65625 -0.703125 2.65625 -0.890625 C 2.65625 -1.078125 2.582031 -1.238281 2.4375 -1.375 C 2.289062 -1.507812 2.109375 -1.625 1.890625 -1.71875 C 1.679688 -1.820312 1.46875 -1.929688 1.25 -2.046875 C 1.039062 -2.160156 0.859375 -2.300781 0.703125 -2.46875 C 0.554688 -2.644531 0.484375 -2.847656 0.484375 -3.078125 C 0.484375 -3.410156 0.613281 -3.6875 0.875 -3.90625 C 1.132812 -4.132812 1.476562 -4.25 1.90625 -4.25 C 2.195312 -4.25 2.460938 -4.195312 2.703125 -4.09375 C 2.941406 -4 3.0625 -3.898438 3.0625 -3.796875 L 3.0625 -3.15625 C 3.0625 -3.050781 3.019531 -3 2.9375 -3 C 2.863281 -3 2.816406 -3.050781 2.796875 -3.15625 C 2.640625 -3.664062 2.328125 -3.921875 1.859375 -3.921875 C 1.640625 -3.921875 1.453125 -3.863281 1.296875 -3.75 C 1.148438 -3.644531 1.078125 -3.503906 1.078125 -3.328125 C 1.078125 -3.148438 1.148438 -2.988281 1.296875 -2.84375 C 1.453125 -2.707031 1.640625 -2.585938 1.859375 -2.484375 C 2.078125 -2.378906 2.296875 -2.269531 2.515625 -2.15625 C 2.734375 -2.050781 2.914062 -1.90625 3.0625 -1.71875 C 3.21875 -1.53125 3.296875 -1.316406 3.296875 -1.078125 Z M 3.296875 -1.078125 "/></g></g></g><g fill="#bd905a" fill-opacity="1"><g transform="translate(176.537608, 253.937587)"><g><path d="M 3 -0.40625 C 3 -0.289062 2.882812 -0.175781 2.65625 -0.0625 C 2.425781 0.0390625 2.203125 0.09375 1.984375 0.09375 C 1.578125 0.09375 1.285156 0 1.109375 -0.1875 C 0.929688 -0.382812 0.84375 -0.707031 0.84375 -1.15625 L 0.84375 -3.65625 C 0.84375 -3.707031 0.804688 -3.734375 0.734375 -3.734375 L 0.234375 -3.734375 C 0.203125 -3.734375 0.175781 -3.742188 0.15625 -3.765625 C 0.132812 -3.785156 0.128906 -3.8125 0.140625 -3.84375 L 0.15625 -4.0625 C 0.164062 -4.125 0.195312 -4.15625 0.25 -4.15625 L 0.75 -4.15625 C 0.800781 -4.15625 0.828125 -4.1875 0.828125 -4.25 L 0.90625 -5.40625 C 0.914062 -5.507812 0.96875 -5.5625 1.0625 -5.5625 C 1.144531 -5.5625 1.195312 -5.519531 1.21875 -5.4375 L 1.5 -4.265625 C 1.507812 -4.191406 1.550781 -4.15625 1.625 -4.15625 L 2.859375 -4.15625 C 2.929688 -4.15625 2.960938 -4.125 2.953125 -4.0625 L 2.921875 -3.84375 C 2.910156 -3.769531 2.878906 -3.734375 2.828125 -3.734375 L 1.5625 -3.734375 C 1.519531 -3.734375 1.5 -3.707031 1.5 -3.65625 L 1.5 -1.078125 C 1.5 -0.554688 1.703125 -0.296875 2.109375 -0.296875 C 2.285156 -0.296875 2.460938 -0.328125 2.640625 -0.390625 L 2.90625 -0.484375 C 2.96875 -0.484375 3 -0.457031 3 -0.40625 Z M 3 -0.40625 "/></g></g></g><g fill="#bd905a" fill-opacity="1"><g transform="translate(180.788036, 253.937587)"><g><path d="M 1 -0.9375 C 1.144531 -0.9375 1.265625 -0.882812 1.359375 -0.78125 C 1.460938 -0.675781 1.515625 -0.550781 1.515625 -0.40625 C 1.515625 -0.269531 1.460938 -0.148438 1.359375 -0.046875 C 1.265625 0.046875 1.144531 0.09375 1 0.09375 C 0.863281 0.09375 0.742188 0.046875 0.640625 -0.046875 C 0.546875 -0.148438 0.5 -0.269531 0.5 -0.40625 C 0.5 -0.550781 0.546875 -0.675781 0.640625 -0.78125 C 0.742188 -0.882812 0.863281 -0.9375 1 -0.9375 Z M 1 -0.9375 "/></g></g></g><g fill="#bd905a" fill-opacity="1"><g transform="translate(184.056949, 253.937587)"><g/></g></g><g fill="#bd905a" fill-opacity="1"><g transform="translate(187.217737, 253.937587)"><g><path d="M 3.546875 0 L 0.4375 0 C 0.363281 0 0.328125 -0.03125 0.328125 -0.09375 L 0.328125 -0.171875 C 0.328125 -0.210938 0.34375 -0.257812 0.375 -0.3125 C 0.625 -0.695312 0.925781 -1.140625 1.28125 -1.640625 C 1.644531 -2.140625 1.914062 -2.519531 2.09375 -2.78125 C 2.28125 -3.050781 2.445312 -3.34375 2.59375 -3.65625 C 2.738281 -3.976562 2.8125 -4.285156 2.8125 -4.578125 C 2.8125 -4.878906 2.722656 -5.125 2.546875 -5.3125 C 2.378906 -5.5 2.148438 -5.59375 1.859375 -5.59375 C 1.578125 -5.59375 1.351562 -5.5 1.1875 -5.3125 C 1.019531 -5.125 0.898438 -4.914062 0.828125 -4.6875 C 0.804688 -4.582031 0.75 -4.53125 0.65625 -4.53125 C 0.613281 -4.53125 0.578125 -4.546875 0.546875 -4.578125 C 0.523438 -4.609375 0.515625 -4.644531 0.515625 -4.6875 L 0.515625 -5.34375 C 0.515625 -5.457031 0.65625 -5.578125 0.9375 -5.703125 C 1.226562 -5.835938 1.554688 -5.90625 1.921875 -5.90625 C 2.429688 -5.90625 2.832031 -5.769531 3.125 -5.5 C 3.425781 -5.238281 3.578125 -4.898438 3.578125 -4.484375 C 3.578125 -4.210938 3.507812 -3.9375 3.375 -3.65625 C 3.25 -3.375 3.097656 -3.125 2.921875 -2.90625 C 2.742188 -2.695312 2.46875 -2.367188 2.09375 -1.921875 C 1.726562 -1.472656 1.410156 -1.066406 1.140625 -0.703125 L 3.1875 -0.703125 C 3.375 -0.703125 3.488281 -0.742188 3.53125 -0.828125 C 3.582031 -0.921875 3.640625 -0.96875 3.703125 -0.96875 C 3.785156 -0.96875 3.820312 -0.914062 3.8125 -0.8125 L 3.765625 -0.265625 C 3.753906 -0.179688 3.726562 -0.113281 3.6875 -0.0625 C 3.644531 -0.0195312 3.597656 0 3.546875 0 Z M 3.546875 0 "/></g></g></g><g fill="#bd905a" fill-opacity="1"><g transform="translate(192.782386, 253.937587)"><g><path d="M 2.578125 -5.546875 C 1.660156 -5.546875 1.203125 -4.664062 1.203125 -2.90625 C 1.203125 -1.144531 1.660156 -0.265625 2.578125 -0.265625 C 3.492188 -0.265625 3.953125 -1.144531 3.953125 -2.90625 C 3.953125 -4.664062 3.492188 -5.546875 2.578125 -5.546875 Z M 0.96875 -0.734375 C 0.601562 -1.296875 0.421875 -2.019531 0.421875 -2.90625 C 0.421875 -3.789062 0.601562 -4.507812 0.96875 -5.0625 C 1.34375 -5.625 1.875 -5.90625 2.5625 -5.90625 C 3.257812 -5.90625 3.796875 -5.625 4.171875 -5.0625 C 4.546875 -4.507812 4.734375 -3.789062 4.734375 -2.90625 C 4.734375 -2.019531 4.546875 -1.296875 4.171875 -0.734375 C 3.796875 -0.179688 3.257812 0.09375 2.5625 0.09375 C 1.875 0.09375 1.34375 -0.179688 0.96875 -0.734375 Z M 0.96875 -0.734375 "/></g></g></g><g fill="#bd905a" fill-opacity="1"><g transform="translate(199.187139, 253.937587)"><g><path d="M 3.546875 0 L 0.4375 0 C 0.363281 0 0.328125 -0.03125 0.328125 -0.09375 L 0.328125 -0.171875 C 0.328125 -0.210938 0.34375 -0.257812 0.375 -0.3125 C 0.625 -0.695312 0.925781 -1.140625 1.28125 -1.640625 C 1.644531 -2.140625 1.914062 -2.519531 2.09375 -2.78125 C 2.28125 -3.050781 2.445312 -3.34375 2.59375 -3.65625 C 2.738281 -3.976562 2.8125 -4.285156 2.8125 -4.578125 C 2.8125 -4.878906 2.722656 -5.125 2.546875 -5.3125 C 2.378906 -5.5 2.148438 -5.59375 1.859375 -5.59375 C 1.578125 -5.59375 1.351562 -5.5 1.1875 -5.3125 C 1.019531 -5.125 0.898438 -4.914062 0.828125 -4.6875 C 0.804688 -4.582031 0.75 -4.53125 0.65625 -4.53125 C 0.613281 -4.53125 0.578125 -4.546875 0.546875 -4.578125 C 0.523438 -4.609375 0.515625 -4.644531 0.515625 -4.6875 L 0.515625 -5.34375 C 0.515625 -5.457031 0.65625 -5.578125 0.9375 -5.703125 C 1.226562 -5.835938 1.554688 -5.90625 1.921875 -5.90625 C 2.429688 -5.90625 2.832031 -5.769531 3.125 -5.5 C 3.425781 -5.238281 3.578125 -4.898438 3.578125 -4.484375 C 3.578125 -4.210938 3.507812 -3.9375 3.375 -3.65625 C 3.25 -3.375 3.097656 -3.125 2.921875 -2.90625 C 2.742188 -2.695312 2.46875 -2.367188 2.09375 -1.921875 C 1.726562 -1.472656 1.410156 -1.066406 1.140625 -0.703125 L 3.1875 -0.703125 C 3.375 -0.703125 3.488281 -0.742188 3.53125 -0.828125 C 3.582031 -0.921875 3.640625 -0.96875 3.703125 -0.96875 C 3.785156 -0.96875 3.820312 -0.914062 3.8125 -0.8125 L 3.765625 -0.265625 C 3.753906 -0.179688 3.726562 -0.113281 3.6875 -0.0625 C 3.644531 -0.0195312 3.597656 0 3.546875 0 Z M 3.546875 0 "/></g></g></g><g fill="#bd905a" fill-opacity="1"><g transform="translate(204.751789, 253.937587)"><g><path d="M 2.578125 -5.546875 C 1.660156 -5.546875 1.203125 -4.664062 1.203125 -2.90625 C 1.203125 -1.144531 1.660156 -0.265625 2.578125 -0.265625 C 3.492188 -0.265625 3.953125 -1.144531 3.953125 -2.90625 C 3.953125 -4.664062 3.492188 -5.546875 2.578125 -5.546875 Z M 0.96875 -0.734375 C 0.601562 -1.296875 0.421875 -2.019531 0.421875 -2.90625 C 0.421875 -3.789062 0.601562 -4.507812 0.96875 -5.0625 C 1.34375 -5.625 1.875 -5.90625 2.5625 -5.90625 C 3.257812 -5.90625 3.796875 -5.625 4.171875 -5.0625 C 4.546875 -4.507812 4.734375 -3.789062 4.734375 -2.90625 C 4.734375 -2.019531 4.546875 -1.296875 4.171875 -0.734375 C 3.796875 -0.179688 3.257812 0.09375 2.5625 0.09375 C 1.875 0.09375 1.34375 -0.179688 0.96875 -0.734375 Z M 0.96875 -0.734375 "/></g></g></g><g fill="#bd905a" fill-opacity="1"><g transform="translate(220.614851, 102.210067)"><g><path d="M 3.5625 -1.703125 L 5.8125 -0.65625 C 5.882812 -0.625 5.925781 -0.660156 5.9375 -0.765625 L 6.171875 -4.390625 L 3.53125 -1.84375 C 3.476562 -1.789062 3.488281 -1.742188 3.5625 -1.703125 Z M 1.65625 -0.046875 C 1.625 -0.00390625 1.59375 0.0390625 1.5625 0.09375 C 1.539062 0.144531 1.539062 0.210938 1.5625 0.296875 C 1.59375 0.390625 1.65625 0.457031 1.75 0.5 L 1.96875 0.625 C 2.039062 0.675781 2.0625 0.742188 2.03125 0.828125 C 1.988281 0.921875 1.914062 0.941406 1.8125 0.890625 L 0.953125 0.4375 L 0.03125 0.0625 C -0.0625 0.0195312 -0.0859375 -0.046875 -0.046875 -0.140625 C -0.00390625 -0.234375 0.0507812 -0.265625 0.125 -0.234375 L 0.328125 -0.15625 C 0.628906 -0.0507812 0.882812 -0.101562 1.09375 -0.3125 L 6.640625 -5.46875 C 6.710938 -5.53125 6.8125 -5.53125 6.9375 -5.46875 C 7.0625 -5.414062 7.125 -5.335938 7.125 -5.234375 L 6.75 2.3125 C 6.71875 2.601562 6.84375 2.832031 7.125 3 L 7.328125 3.109375 C 7.347656 3.128906 7.363281 3.15625 7.375 3.1875 C 7.382812 3.21875 7.378906 3.25 7.359375 3.28125 C 7.316406 3.382812 7.25 3.414062 7.15625 3.375 L 6.015625 2.796875 L 4.953125 2.359375 C 4.867188 2.316406 4.847656 2.253906 4.890625 2.171875 C 4.929688 2.066406 4.988281 2.03125 5.0625 2.0625 L 5.3125 2.15625 C 5.40625 2.195312 5.492188 2.195312 5.578125 2.15625 C 5.660156 2.125 5.710938 2.078125 5.734375 2.015625 C 5.765625 1.960938 5.78125 1.914062 5.78125 1.875 L 5.890625 0.0625 C 5.910156 -0.0195312 5.875 -0.0820312 5.78125 -0.125 L 3.171875 -1.34375 C 3.097656 -1.375 3.023438 -1.359375 2.953125 -1.296875 Z M 1.65625 -0.046875 "/></g></g></g><g fill="#bd905a" fill-opacity="1"><g transform="translate(232.934665, 108.434512)"><g><path d="M 6.375 -1.0625 C 6.832031 -1.15625 7.195312 -1.410156 7.46875 -1.828125 C 7.738281 -2.253906 7.816406 -2.6875 7.703125 -3.125 C 7.585938 -3.5625 7.273438 -3.953125 6.765625 -4.296875 L 6.1875 -4.65625 C 5.945312 -4.8125 5.75 -4.765625 5.59375 -4.515625 L 4.0625 -2.15625 C 4.007812 -2.070312 4.019531 -2.007812 4.09375 -1.96875 L 4.921875 -1.4375 C 5.429688 -1.09375 5.914062 -0.96875 6.375 -1.0625 Z M 7.21875 -4.5625 C 7.925781 -4.101562 8.375 -3.578125 8.5625 -2.984375 C 8.757812 -2.398438 8.679688 -1.832031 8.328125 -1.28125 C 7.972656 -0.738281 7.484375 -0.414062 6.859375 -0.3125 C 6.234375 -0.207031 5.59375 -0.367188 4.9375 -0.796875 L 3.828125 -1.515625 C 3.742188 -1.566406 3.679688 -1.5625 3.640625 -1.5 L 2.28125 0.609375 C 2.195312 0.710938 2.171875 0.828125 2.203125 0.953125 C 2.242188 1.078125 2.328125 1.175781 2.453125 1.25 L 2.8125 1.53125 C 2.882812 1.570312 2.890625 1.632812 2.828125 1.71875 C 2.773438 1.800781 2.703125 1.816406 2.609375 1.765625 L 1.5 0.96875 L 0.421875 0.34375 C 0.328125 0.28125 0.304688 0.207031 0.359375 0.125 C 0.421875 0.0390625 0.492188 0.0234375 0.578125 0.078125 L 0.84375 0.21875 C 1.113281 0.363281 1.328125 0.320312 1.484375 0.09375 L 4.90625 -5.203125 C 5.050781 -5.421875 4.992188 -5.640625 4.734375 -5.859375 L 4.46875 -6.0625 C 4.40625 -6.113281 4.398438 -6.175781 4.453125 -6.25 C 4.503906 -6.34375 4.570312 -6.359375 4.65625 -6.296875 L 5.90625 -5.421875 Z M 7.21875 -4.5625 "/></g></g></g><g fill="#bd905a" fill-opacity="1"><g transform="translate(243.191047, 115.55006)"><g><path d="M 6.453125 -0.203125 C 6.921875 -0.234375 7.316406 -0.4375 7.640625 -0.8125 C 7.960938 -1.195312 8.097656 -1.613281 8.046875 -2.0625 C 7.992188 -2.519531 7.734375 -2.953125 7.265625 -3.359375 L 6.765625 -3.796875 C 6.546875 -3.984375 6.335938 -3.960938 6.140625 -3.734375 L 4.3125 -1.59375 C 4.25 -1.519531 4.25 -1.457031 4.3125 -1.40625 L 5.046875 -0.765625 C 5.515625 -0.359375 5.984375 -0.171875 6.453125 -0.203125 Z M 7.765625 -3.5625 C 8.398438 -3.007812 8.773438 -2.425781 8.890625 -1.8125 C 9.003906 -1.207031 8.847656 -0.65625 8.421875 -0.15625 C 7.992188 0.332031 7.460938 0.582031 6.828125 0.59375 C 6.203125 0.613281 5.59375 0.367188 5 -0.140625 L 4 -0.984375 C 3.925781 -1.054688 3.863281 -1.0625 3.8125 -1 L 2.1875 0.890625 C 2.09375 0.992188 2.050781 1.109375 2.0625 1.234375 C 2.082031 1.359375 2.148438 1.46875 2.265625 1.5625 L 2.578125 1.890625 C 2.640625 1.941406 2.640625 2.003906 2.578125 2.078125 C 2.515625 2.148438 2.441406 2.148438 2.359375 2.078125 L 1.359375 1.15625 L 0.390625 0.390625 C 0.296875 0.316406 0.28125 0.242188 0.34375 0.171875 C 0.40625 0.0976562 0.472656 0.0859375 0.546875 0.140625 L 0.8125 0.3125 C 1.050781 0.5 1.265625 0.484375 1.453125 0.265625 L 5.546875 -4.515625 C 5.722656 -4.710938 5.695312 -4.929688 5.46875 -5.171875 L 5.234375 -5.40625 C 5.179688 -5.46875 5.179688 -5.53125 5.234375 -5.59375 C 5.296875 -5.675781 5.367188 -5.6875 5.453125 -5.625 L 6.578125 -4.578125 Z M 7.765625 -3.5625 "/></g></g></g><g fill="#bd905a" fill-opacity="1"><g transform="translate(252.414086, 123.934203)"><g><path d="M 3.9375 -0.125 L 5.578125 1.734375 C 5.628906 1.785156 5.679688 1.769531 5.734375 1.6875 L 7.421875 -1.53125 L 3.96875 -0.265625 C 3.894531 -0.234375 3.882812 -0.1875 3.9375 -0.125 Z M 1.53125 0.625 C 1.488281 0.65625 1.445312 0.6875 1.40625 0.71875 C 1.363281 0.757812 1.332031 0.820312 1.3125 0.90625 C 1.300781 1 1.332031 1.082031 1.40625 1.15625 L 1.546875 1.359375 C 1.585938 1.441406 1.578125 1.507812 1.515625 1.5625 C 1.441406 1.632812 1.367188 1.628906 1.296875 1.546875 L 0.6875 0.78125 L 0 0.0625 C -0.0703125 -0.0078125 -0.0703125 -0.078125 0 -0.140625 C 0.0703125 -0.210938 0.140625 -0.21875 0.203125 -0.15625 L 0.359375 -0.015625 C 0.597656 0.203125 0.847656 0.257812 1.109375 0.15625 L 8.265625 -2.328125 C 8.359375 -2.367188 8.453125 -2.335938 8.546875 -2.234375 C 8.640625 -2.128906 8.664062 -2.03125 8.625 -1.9375 L 5.234375 4.84375 C 5.097656 5.09375 5.125 5.347656 5.3125 5.609375 L 5.4375 5.796875 C 5.457031 5.816406 5.460938 5.84375 5.453125 5.875 C 5.453125 5.914062 5.441406 5.945312 5.421875 5.96875 C 5.335938 6.039062 5.257812 6.039062 5.1875 5.96875 L 4.390625 4.984375 L 3.59375 4.140625 C 3.53125 4.078125 3.535156 4.015625 3.609375 3.953125 C 3.679688 3.878906 3.742188 3.875 3.796875 3.9375 L 4 4.109375 C 4.0625 4.179688 4.132812 4.21875 4.21875 4.21875 C 4.3125 4.226562 4.378906 4.210938 4.421875 4.171875 C 4.472656 4.128906 4.507812 4.085938 4.53125 4.046875 L 5.359375 2.4375 C 5.410156 2.363281 5.398438 2.285156 5.328125 2.203125 L 3.4375 0.046875 C 3.375 -0.015625 3.304688 -0.0234375 3.234375 0.015625 Z M 1.53125 0.625 "/></g></g></g><g fill="#bd905a" fill-opacity="1"><g transform="translate(261.18971, 134.574666)"><g><path d="M 6.59375 1.671875 C 7.019531 1.804688 7.425781 1.742188 7.8125 1.484375 C 8.207031 1.234375 8.425781 0.890625 8.46875 0.453125 C 8.519531 0.015625 8.40625 -0.421875 8.125 -0.859375 L 7.546875 -1.734375 C 7.390625 -1.972656 7.1875 -2.015625 6.9375 -1.859375 L 4.84375 -0.484375 C 4.769531 -0.429688 4.753906 -0.367188 4.796875 -0.296875 L 5.546875 0.828125 C 5.828125 1.253906 6.175781 1.535156 6.59375 1.671875 Z M 8.734375 -0.796875 C 9.117188 -0.210938 9.285156 0.363281 9.234375 0.9375 C 9.179688 1.519531 8.90625 1.972656 8.40625 2.296875 C 7.90625 2.617188 7.367188 2.703125 6.796875 2.546875 C 6.234375 2.390625 5.796875 2.085938 5.484375 1.640625 L 5.46875 1.625 C 5.507812 1.78125 5.492188 1.941406 5.421875 2.109375 L 4.09375 4.953125 C 3.957031 5.222656 3.96875 5.507812 4.125 5.8125 L 4.203125 6 C 4.253906 6.082031 4.242188 6.144531 4.171875 6.1875 C 4.078125 6.25 4 6.234375 3.9375 6.140625 C 3.582031 5.523438 3.359375 5.144531 3.265625 5 C 3.171875 4.863281 3.15625 4.707031 3.21875 4.53125 L 4.8125 1.265625 C 4.925781 1.015625 4.9375 0.816406 4.84375 0.671875 C 4.84375 0.671875 4.835938 0.664062 4.828125 0.65625 L 4.40625 -0.015625 C 4.34375 -0.0976562 4.269531 -0.113281 4.1875 -0.0625 L 1.828125 1.46875 C 1.710938 1.539062 1.644531 1.640625 1.625 1.765625 C 1.613281 1.890625 1.648438 2.015625 1.734375 2.140625 L 1.9375 2.53125 C 1.988281 2.601562 1.972656 2.664062 1.890625 2.71875 C 1.804688 2.78125 1.734375 2.765625 1.671875 2.671875 L 0.96875 1.5 L 0.25 0.484375 C 0.195312 0.410156 0.207031 0.335938 0.28125 0.265625 C 0.363281 0.203125 0.429688 0.210938 0.484375 0.296875 L 0.6875 0.53125 C 0.875 0.78125 1.082031 0.828125 1.3125 0.671875 L 6.59375 -2.765625 C 6.820312 -2.910156 6.851562 -3.128906 6.6875 -3.421875 L 6.546875 -3.734375 C 6.503906 -3.796875 6.519531 -3.847656 6.59375 -3.890625 C 6.675781 -3.953125 6.75 -3.941406 6.8125 -3.859375 L 7.59375 -2.546875 Z M 8.734375 -0.796875 "/></g></g></g><g fill="#bd905a" fill-opacity="1"><g transform="translate(268.045797, 145.863637)"><g><path d="M 2.5 5.34375 L 0.734375 1.578125 L 0.15625 0.453125 C 0.113281 0.359375 0.132812 0.289062 0.21875 0.25 C 0.3125 0.207031 0.375 0.222656 0.40625 0.296875 L 0.578125 0.578125 C 0.648438 0.710938 0.742188 0.804688 0.859375 0.859375 C 0.972656 0.910156 1.09375 0.90625 1.21875 0.84375 L 6.921875 -1.828125 C 7.160156 -1.941406 7.222656 -2.15625 7.109375 -2.46875 L 7 -2.78125 C 6.96875 -2.851562 6.992188 -2.910156 7.078125 -2.953125 C 7.171875 -2.992188 7.238281 -2.96875 7.28125 -2.875 L 7.765625 -1.71875 L 9.4375 1.859375 C 9.5 1.972656 9.507812 2.085938 9.46875 2.203125 C 9.4375 2.328125 9.367188 2.421875 9.265625 2.484375 L 8.390625 3.0625 C 8.285156 3.132812 8.203125 3.113281 8.140625 3 C 8.085938 2.882812 8.109375 2.789062 8.203125 2.71875 C 8.472656 2.457031 8.628906 2.195312 8.671875 1.9375 C 8.710938 1.675781 8.648438 1.367188 8.484375 1.015625 L 7.734375 -0.5625 C 7.671875 -0.707031 7.578125 -0.804688 7.453125 -0.859375 C 7.335938 -0.921875 7.203125 -0.914062 7.046875 -0.84375 L 4.9375 0.140625 C 4.851562 0.179688 4.828125 0.25 4.859375 0.34375 L 5.734375 2.203125 C 5.785156 2.296875 5.84375 2.359375 5.90625 2.390625 C 5.976562 2.421875 6.039062 2.4375 6.09375 2.4375 C 6.144531 2.445312 6.222656 2.441406 6.328125 2.421875 L 6.515625 2.390625 C 6.585938 2.367188 6.644531 2.394531 6.6875 2.46875 C 6.726562 2.550781 6.703125 2.617188 6.609375 2.671875 L 5.734375 3.046875 L 4.9375 3.453125 C 4.851562 3.484375 4.785156 3.460938 4.734375 3.390625 C 4.691406 3.316406 4.707031 3.25 4.78125 3.1875 L 4.953125 3.078125 C 5.265625 2.859375 5.367188 2.640625 5.265625 2.421875 L 4.390625 0.546875 C 4.359375 0.460938 4.296875 0.441406 4.203125 0.484375 L 1.875 1.578125 C 1.726562 1.648438 1.632812 1.75 1.59375 1.875 C 1.5625 2.007812 1.578125 2.148438 1.640625 2.296875 L 2.421875 3.953125 C 2.585938 4.304688 2.8125 4.566406 3.09375 4.734375 C 3.375 4.910156 3.707031 4.96875 4.09375 4.90625 C 4.207031 4.882812 4.28125 4.910156 4.3125 4.984375 C 4.351562 5.066406 4.363281 5.132812 4.34375 5.1875 C 4.320312 5.238281 4.285156 5.269531 4.234375 5.28125 L 3.109375 5.609375 C 2.984375 5.640625 2.863281 5.632812 2.75 5.59375 C 2.644531 5.550781 2.5625 5.46875 2.5 5.34375 Z M 2.5 5.34375 "/></g></g></g><g fill="#bd905a" fill-opacity="1"><g transform="translate(273.139944, 157.712861)"><g><path d="M 7.390625 0.046875 L 1.640625 1.84375 C 1.492188 1.882812 1.390625 1.960938 1.328125 2.078125 C 1.273438 2.203125 1.273438 2.34375 1.328125 2.5 L 1.796875 4.015625 C 1.921875 4.398438 2.113281 4.695312 2.375 4.90625 C 2.632812 5.113281 2.953125 5.21875 3.328125 5.21875 C 3.453125 5.21875 3.53125 5.269531 3.5625 5.375 C 3.601562 5.488281 3.550781 5.566406 3.40625 5.609375 L 2.265625 5.765625 C 2.128906 5.785156 2.007812 5.765625 1.90625 5.703125 C 1.800781 5.648438 1.726562 5.554688 1.6875 5.421875 L 0.515625 1.65625 L 0.09375 0.484375 C 0.0625 0.378906 0.09375 0.3125 0.1875 0.28125 C 0.28125 0.25 0.34375 0.273438 0.375 0.359375 L 0.5 0.671875 C 0.550781 0.796875 0.625 0.890625 0.71875 0.953125 C 0.820312 1.023438 0.941406 1.039062 1.078125 1 L 7.09375 -0.875 C 7.34375 -0.957031 7.4375 -1.160156 7.375 -1.484375 L 7.3125 -1.796875 C 7.289062 -1.890625 7.320312 -1.945312 7.40625 -1.96875 C 7.5 -2 7.5625 -1.960938 7.59375 -1.859375 L 7.921875 -0.65625 L 8.296875 0.390625 C 8.328125 0.484375 8.300781 0.546875 8.21875 0.578125 C 8.113281 0.609375 8.050781 0.582031 8.03125 0.5 L 7.9375 0.3125 C 7.800781 0.0625 7.617188 -0.0234375 7.390625 0.046875 Z M 7.390625 0.046875 "/></g></g></g></svg>