<?xml version="1.0" standalone="no"?>
<!DOCTYPE svg PUBLIC "-//W3C//DTD SVG 20010904//EN"
 "http://www.w3.org/TR/2001/REC-SVG-20010904/DTD/svg10.dtd">
<svg version="1.0" xmlns="http://www.w3.org/2000/svg"
 width="500.000000pt" height="500.000000pt" viewBox="0 0 500.000000 500.000000"
 preserveAspectRatio="xMidYMid meet">
<metadata>
Created by potrace 1.16, written by Peter Selinger 2001-2019
</metadata>
<g transform="translate(0.000000,500.000000) scale(0.100000,-0.100000)"
fill="#000000" stroke="none">
<path d="M2265 2972 c-2 -3 -44 -11 -91 -19 -168 -26 -315 -79 -322 -114 -2
-10 32 -42 88 -85 107 -80 159 -150 193 -258 19 -61 22 -92 21 -223 0 -84 3
-153 8 -153 4 0 8 4 8 9 0 6 9 97 20 203 26 238 86 599 103 611 15 10 141 1
227 -17 65 -14 87 -12 61 4 -31 18 -303 55 -316 42z m-15 -42 c0 -6 -11 -70
-24 -143 -14 -73 -30 -179 -36 -237 -15 -137 -20 -146 -36 -78 -28 119 -91
209 -208 297 -39 29 -72 57 -74 62 -6 14 54 38 174 68 168 42 204 47 204 31z"/>
<path d="M3112 2922 c-70 -70 -149 -236 -182 -382 -10 -47 -22 -65 -76 -120
-71 -73 -101 -129 -84 -160 13 -24 22 -25 58 -6 33 17 64 71 87 148 11 40 25
64 45 78 33 23 152 81 157 76 2 -2 -3 -70 -12 -151 -17 -169 -20 -301 -5 -310
6 -4 10 12 10 42 0 79 32 417 41 427 4 5 19 9 33 9 14 0 26 3 26 8 0 5 -14 9
-31 9 -29 0 -31 2 -27 28 3 15 15 89 28 165 25 143 23 168 -13 175 -9 2 -34
-15 -55 -36z m68 -9 c0 -16 -11 -84 -25 -153 -13 -69 -25 -136 -25 -150 -1
-22 -14 -31 -95 -70 -59 -28 -95 -41 -95 -33 0 30 65 213 97 275 39 75 107
158 129 158 9 0 14 -10 14 -27z"/>
<path d="M2706 2869 c-35 -41 -85 -149 -141 -306 -26 -73 -52 -133 -58 -133
-7 0 -8 36 -4 108 3 59 2 113 -2 121 -26 41 -71 -38 -116 -199 -63 -225 -66
-233 -78 -221 -30 31 -5 420 38 581 14 54 12 77 -5 50 -34 -55 -74 -348 -68
-500 5 -116 17 -160 43 -160 15 0 31 44 74 210 30 120 58 191 85 225 15 19 16
12 10 -95 -5 -95 -3 -119 9 -135 l16 -20 15 20 c8 11 29 63 47 115 67 196 138
340 166 340 18 0 16 -30 -12 -209 -38 -242 -65 -581 -46 -581 7 0 11 21 11 53
0 74 25 293 55 489 28 185 31 248 13 266 -17 17 -23 15 -52 -19z"/>
</g>
</svg>
