<svg xmlns="http://www.w3.org/2000/svg" xmlns:xlink="http://www.w3.org/1999/xlink" width="50" zoomAndPan="magnify" viewBox="0 0 50 39.999991" height="39" preserveAspectRatio="xMidYMid meet" version="1.0"><defs><g/><clipPath id="d64bc50d4e"><path d="M 85 87 L 286 87 L 286 288 L 85 288 Z M 85 87 " clip-rule="nonzero"/></clipPath><clipPath id="e4a80c7333"><path d="M 44.382812 181.109375 L 159.160156 76.566406 L 294.003906 224.609375 L 179.230469 329.152344 Z M 44.382812 181.109375 " clip-rule="nonzero"/></clipPath><clipPath id="9a87f7d313"><path d="M 44.382812 181.109375 L 192.425781 46.265625 L 327.273438 194.308594 L 179.230469 329.152344 Z M 44.382812 181.109375 " clip-rule="nonzero"/></clipPath></defs><g clip-path="url(#d64bc50d4e)"><g clip-path="url(#e4a80c7333)"><g clip-path="url(#9a87f7d313)"><path fill="#403737" d="M 253.25 261.730469 C 212.445312 298.898438 148.972656 295.933594 111.804688 255.132812 C 74.640625 214.328125 77.601562 150.851562 118.40625 113.6875 C 159.207031 76.523438 222.683594 79.484375 259.847656 120.285156 C 297.015625 161.089844 294.054688 224.566406 253.25 261.730469 Z M 119.402344 114.78125 C 79.179688 151.414062 76.265625 213.917969 112.898438 254.136719 C 149.535156 294.355469 212.035156 297.269531 252.253906 260.636719 C 292.472656 224.003906 295.390625 161.503906 258.753906 121.28125 C 222.121094 81.0625 159.621094 78.148438 119.402344 114.78125 Z M 119.402344 114.78125 " fill-opacity="1" fill-rule="nonzero"/></g></g></g><g fill="#403737" fill-opacity="1"><g transform="translate(113.213706, 209.597285)"><g><path d="M 1.628906 -54.324219 L 1.628906 -46.988281 L 2.171875 -46.988281 C 2.171875 -47.152344 2.117188 -46.988281 2.117188 -47.207031 C 2.117188 -50.847656 8.964844 -53.777344 18.308594 -53.777344 L 18.308594 -15.101562 C 18.308594 -4.398438 17.980469 -0.542969 13.308594 -0.542969 L 13.308594 0 L 27.488281 0 L 27.488281 -0.542969 C 22.816406 -0.542969 22.925781 -4.398438 22.925781 -15.101562 L 22.925781 -53.777344 C 32.265625 -53.777344 39.113281 -50.847656 39.113281 -47.207031 C 39.113281 -46.988281 39.058594 -47.152344 39.058594 -46.988281 L 39.601562 -46.988281 L 39.601562 -54.324219 Z M 1.628906 -54.324219 "/></g></g></g><g fill="#403737" fill-opacity="1"><g transform="translate(154.439808, 209.597285)"><g><path d="M 1.628906 -54.324219 L 1.628906 -53.777344 C 6.300781 -53.777344 6.628906 -49.921875 6.628906 -39.222656 L 6.628906 -15.101562 C 6.628906 -4.398438 6.300781 -0.542969 1.628906 -0.542969 L 1.628906 0 L 16.296875 0 L 16.296875 -0.542969 C 11.625 -0.542969 7.171875 -4.453125 7.171875 -20.261719 L 7.171875 -27.160156 L 7.226562 -50.464844 C 15.480469 -32.757812 20.371094 -22.21875 28.898438 -3.964844 L 29.386719 -3.964844 C 36.070312 -21.890625 41.558594 -36.832031 47.421875 -52.53125 L 47.421875 -15.101562 C 47.421875 -4.398438 47.097656 -0.542969 42.425781 -0.542969 L 42.425781 0 L 57.09375 0 L 57.09375 -0.542969 C 52.421875 -0.542969 52.09375 -4.398438 52.09375 -15.101562 L 52.09375 -39.222656 C 52.09375 -49.921875 52.421875 -53.777344 57.09375 -53.777344 L 57.09375 -54.324219 L 47.53125 -54.324219 L 31.234375 -10.539062 L 10.375 -54.324219 Z M 1.628906 -54.324219 "/></g></g></g><g fill="#403737" fill-opacity="1"><g transform="translate(213.155766, 209.597285)"><g><path d="M 1.628906 -9.507812 C 1.628906 -3.855469 5.214844 1.085938 11.515625 1.085938 C 22.328125 1.085938 28.683594 -8.472656 28.683594 -21.675781 C 28.683594 -24.28125 28.574219 -26.453125 28.355469 -28.195312 L 35.09375 -10.429688 C 37.15625 -4.941406 37.429688 -0.542969 29.769531 -0.542969 L 29.769531 0 L 47.585938 0 L 47.585938 -0.542969 C 44.273438 -0.542969 42.535156 -3.53125 40.144531 -9.507812 L 22.761719 -55.410156 L 22.21875 -55.410156 C 18.796875 -46.390625 16.785156 -41.011719 13.472656 -32.265625 C 12.929688 -30.855469 13.199219 -29.386719 14.722656 -29.386719 C 17.816406 -29.386719 19.449219 -35.09375 22.054688 -35.09375 C 22.761719 -35.09375 23.359375 -34.65625 23.359375 -33.625 C 23.359375 -27.976562 1.628906 -22.871094 1.628906 -9.507812 Z M 6.246094 -10.539062 C 6.246094 -23.957031 23.957031 -26.238281 23.957031 -33.515625 C 23.957031 -34.929688 23.195312 -35.636719 22.164062 -35.636719 C 19.285156 -35.636719 17.273438 -29.933594 14.777344 -29.933594 C 13.90625 -29.933594 13.472656 -30.582031 14.179688 -32.484375 L 20.425781 -49.109375 L 27 -31.777344 C 27.976562 -28.574219 28.140625 -25.585938 28.140625 -21.566406 C 28.140625 -12.65625 23.847656 -1.519531 14.777344 -1.519531 C 9.453125 -1.519531 6.246094 -5.433594 6.246094 -10.539062 Z M 6.246094 -10.539062 "/></g></g></g><g fill="#403737" fill-opacity="1"><g transform="translate(167.150029, 253.937558)"><g><path d="M 4.421875 0 L 1.3125 0 L 0.359375 0.03125 C 0.285156 0.03125 0.25 -0.00390625 0.25 -0.078125 C 0.25 -0.148438 0.28125 -0.1875 0.34375 -0.1875 L 0.578125 -0.203125 C 0.691406 -0.210938 0.785156 -0.25 0.859375 -0.3125 C 0.929688 -0.375 0.96875 -0.453125 0.96875 -0.546875 L 0.96875 -5.265625 C 0.96875 -5.460938 0.835938 -5.578125 0.578125 -5.609375 L 0.34375 -5.625 C 0.28125 -5.625 0.25 -5.660156 0.25 -5.734375 C 0.25 -5.816406 0.285156 -5.859375 0.359375 -5.859375 L 1.3125 -5.8125 L 4.25 -5.8125 C 4.351562 -5.8125 4.4375 -5.78125 4.5 -5.71875 C 4.570312 -5.65625 4.613281 -5.578125 4.625 -5.484375 L 4.75 -4.71875 C 4.757812 -4.625 4.71875 -4.578125 4.625 -4.578125 C 4.53125 -4.578125 4.472656 -4.617188 4.453125 -4.703125 C 4.367188 -4.972656 4.242188 -5.160156 4.078125 -5.265625 C 3.910156 -5.378906 3.679688 -5.4375 3.390625 -5.4375 L 2.078125 -5.4375 C 1.953125 -5.4375 1.851562 -5.398438 1.78125 -5.328125 C 1.707031 -5.265625 1.671875 -5.171875 1.671875 -5.046875 L 1.671875 -3.296875 C 1.671875 -3.222656 1.707031 -3.1875 1.78125 -3.1875 L 3.328125 -3.1875 C 3.398438 -3.1875 3.457031 -3.207031 3.5 -3.25 C 3.550781 -3.289062 3.582031 -3.328125 3.59375 -3.359375 C 3.601562 -3.390625 3.625 -3.453125 3.65625 -3.546875 L 3.6875 -3.65625 C 3.707031 -3.71875 3.75 -3.75 3.8125 -3.75 C 3.882812 -3.75 3.921875 -3.707031 3.921875 -3.625 L 3.875 -2.921875 L 3.921875 -2.25 C 3.921875 -2.175781 3.882812 -2.132812 3.8125 -2.125 C 3.738281 -2.125 3.695312 -2.160156 3.6875 -2.234375 L 3.671875 -2.375 C 3.617188 -2.664062 3.503906 -2.8125 3.328125 -2.8125 L 1.765625 -2.8125 C 1.703125 -2.8125 1.671875 -2.769531 1.671875 -2.6875 L 1.671875 -0.765625 C 1.671875 -0.648438 1.707031 -0.554688 1.78125 -0.484375 C 1.851562 -0.410156 1.953125 -0.375 2.078125 -0.375 L 3.453125 -0.375 C 3.734375 -0.375 3.976562 -0.445312 4.1875 -0.59375 C 4.394531 -0.738281 4.539062 -0.945312 4.625 -1.21875 C 4.65625 -1.300781 4.703125 -1.34375 4.765625 -1.34375 C 4.828125 -1.34375 4.867188 -1.328125 4.890625 -1.296875 C 4.921875 -1.265625 4.929688 -1.234375 4.921875 -1.203125 L 4.796875 -0.328125 C 4.785156 -0.234375 4.742188 -0.15625 4.671875 -0.09375 C 4.609375 -0.03125 4.523438 0 4.421875 0 Z M 4.421875 0 "/></g></g></g><g fill="#403737" fill-opacity="1"><g transform="translate(173.671231, 253.937558)"><g><path d="M 3.296875 -1.078125 C 3.296875 -0.722656 3.15625 -0.4375 2.875 -0.21875 C 2.59375 -0.0078125 2.25 0.09375 1.84375 0.09375 C 1.445312 0.09375 1.113281 0.046875 0.84375 -0.046875 C 0.582031 -0.140625 0.453125 -0.242188 0.453125 -0.359375 L 0.453125 -1.09375 C 0.453125 -1.1875 0.488281 -1.234375 0.5625 -1.234375 C 0.644531 -1.234375 0.695312 -1.1875 0.71875 -1.09375 C 0.894531 -0.519531 1.253906 -0.234375 1.796875 -0.234375 C 2.046875 -0.234375 2.25 -0.296875 2.40625 -0.421875 C 2.570312 -0.546875 2.65625 -0.703125 2.65625 -0.890625 C 2.65625 -1.078125 2.582031 -1.238281 2.4375 -1.375 C 2.289062 -1.507812 2.109375 -1.625 1.890625 -1.71875 C 1.679688 -1.820312 1.46875 -1.929688 1.25 -2.046875 C 1.039062 -2.160156 0.859375 -2.300781 0.703125 -2.46875 C 0.554688 -2.644531 0.484375 -2.847656 0.484375 -3.078125 C 0.484375 -3.410156 0.613281 -3.6875 0.875 -3.90625 C 1.132812 -4.132812 1.476562 -4.25 1.90625 -4.25 C 2.195312 -4.25 2.460938 -4.195312 2.703125 -4.09375 C 2.941406 -4 3.0625 -3.898438 3.0625 -3.796875 L 3.0625 -3.15625 C 3.0625 -3.050781 3.019531 -3 2.9375 -3 C 2.863281 -3 2.816406 -3.050781 2.796875 -3.15625 C 2.640625 -3.664062 2.328125 -3.921875 1.859375 -3.921875 C 1.640625 -3.921875 1.453125 -3.863281 1.296875 -3.75 C 1.148438 -3.644531 1.078125 -3.503906 1.078125 -3.328125 C 1.078125 -3.148438 1.148438 -2.988281 1.296875 -2.84375 C 1.453125 -2.707031 1.640625 -2.585938 1.859375 -2.484375 C 2.078125 -2.378906 2.296875 -2.269531 2.515625 -2.15625 C 2.734375 -2.050781 2.914062 -1.90625 3.0625 -1.71875 C 3.21875 -1.53125 3.296875 -1.316406 3.296875 -1.078125 Z M 3.296875 -1.078125 "/></g></g></g><g fill="#403737" fill-opacity="1"><g transform="translate(178.595402, 253.937558)"><g><path d="M 3 -0.40625 C 3 -0.289062 2.882812 -0.175781 2.65625 -0.0625 C 2.425781 0.0390625 2.203125 0.09375 1.984375 0.09375 C 1.578125 0.09375 1.285156 0 1.109375 -0.1875 C 0.929688 -0.382812 0.84375 -0.707031 0.84375 -1.15625 L 0.84375 -3.65625 C 0.84375 -3.707031 0.804688 -3.734375 0.734375 -3.734375 L 0.234375 -3.734375 C 0.203125 -3.734375 0.175781 -3.742188 0.15625 -3.765625 C 0.132812 -3.785156 0.128906 -3.8125 0.140625 -3.84375 L 0.15625 -4.0625 C 0.164062 -4.125 0.195312 -4.15625 0.25 -4.15625 L 0.75 -4.15625 C 0.800781 -4.15625 0.828125 -4.1875 0.828125 -4.25 L 0.90625 -5.40625 C 0.914062 -5.507812 0.96875 -5.5625 1.0625 -5.5625 C 1.144531 -5.5625 1.195312 -5.519531 1.21875 -5.4375 L 1.5 -4.265625 C 1.507812 -4.191406 1.550781 -4.15625 1.625 -4.15625 L 2.859375 -4.15625 C 2.929688 -4.15625 2.960938 -4.125 2.953125 -4.0625 L 2.921875 -3.84375 C 2.910156 -3.769531 2.878906 -3.734375 2.828125 -3.734375 L 1.5625 -3.734375 C 1.519531 -3.734375 1.5 -3.707031 1.5 -3.65625 L 1.5 -1.078125 C 1.5 -0.554688 1.703125 -0.296875 2.109375 -0.296875 C 2.285156 -0.296875 2.460938 -0.328125 2.640625 -0.390625 L 2.90625 -0.484375 C 2.96875 -0.484375 3 -0.457031 3 -0.40625 Z M 3 -0.40625 "/></g></g></g><g fill="#403737" fill-opacity="1"><g transform="translate(182.845829, 253.937558)"><g/></g></g><g fill="#403737" fill-opacity="1"><g transform="translate(186.006617, 253.937558)"><g><path d="M 3.546875 0 L 0.4375 0 C 0.363281 0 0.328125 -0.03125 0.328125 -0.09375 L 0.328125 -0.171875 C 0.328125 -0.210938 0.34375 -0.257812 0.375 -0.3125 C 0.625 -0.695312 0.925781 -1.140625 1.28125 -1.640625 C 1.644531 -2.140625 1.914062 -2.519531 2.09375 -2.78125 C 2.28125 -3.050781 2.445312 -3.34375 2.59375 -3.65625 C 2.738281 -3.976562 2.8125 -4.285156 2.8125 -4.578125 C 2.8125 -4.878906 2.722656 -5.125 2.546875 -5.3125 C 2.378906 -5.5 2.148438 -5.59375 1.859375 -5.59375 C 1.578125 -5.59375 1.351562 -5.5 1.1875 -5.3125 C 1.019531 -5.125 0.898438 -4.914062 0.828125 -4.6875 C 0.804688 -4.582031 0.75 -4.53125 0.65625 -4.53125 C 0.613281 -4.53125 0.578125 -4.546875 0.546875 -4.578125 C 0.523438 -4.609375 0.515625 -4.644531 0.515625 -4.6875 L 0.515625 -5.34375 C 0.515625 -5.457031 0.65625 -5.578125 0.9375 -5.703125 C 1.226562 -5.835938 1.554688 -5.90625 1.921875 -5.90625 C 2.429688 -5.90625 2.832031 -5.769531 3.125 -5.5 C 3.425781 -5.238281 3.578125 -4.898438 3.578125 -4.484375 C 3.578125 -4.210938 3.507812 -3.9375 3.375 -3.65625 C 3.25 -3.375 3.097656 -3.125 2.921875 -2.90625 C 2.742188 -2.695312 2.46875 -2.367188 2.09375 -1.921875 C 1.726562 -1.472656 1.410156 -1.066406 1.140625 -0.703125 L 3.1875 -0.703125 C 3.375 -0.703125 3.488281 -0.742188 3.53125 -0.828125 C 3.582031 -0.921875 3.640625 -0.96875 3.703125 -0.96875 C 3.785156 -0.96875 3.820312 -0.914062 3.8125 -0.8125 L 3.765625 -0.265625 C 3.753906 -0.179688 3.726562 -0.113281 3.6875 -0.0625 C 3.644531 -0.0195312 3.597656 0 3.546875 0 Z M 3.546875 0 "/></g></g></g><g fill="#403737" fill-opacity="1"><g transform="translate(191.571267, 253.937558)"><g><path d="M 2.578125 -5.546875 C 1.660156 -5.546875 1.203125 -4.664062 1.203125 -2.90625 C 1.203125 -1.144531 1.660156 -0.265625 2.578125 -0.265625 C 3.492188 -0.265625 3.953125 -1.144531 3.953125 -2.90625 C 3.953125 -4.664062 3.492188 -5.546875 2.578125 -5.546875 Z M 0.96875 -0.734375 C 0.601562 -1.296875 0.421875 -2.019531 0.421875 -2.90625 C 0.421875 -3.789062 0.601562 -4.507812 0.96875 -5.0625 C 1.34375 -5.625 1.875 -5.90625 2.5625 -5.90625 C 3.257812 -5.90625 3.796875 -5.625 4.171875 -5.0625 C 4.546875 -4.507812 4.734375 -3.789062 4.734375 -2.90625 C 4.734375 -2.019531 4.546875 -1.296875 4.171875 -0.734375 C 3.796875 -0.179688 3.257812 0.09375 2.5625 0.09375 C 1.875 0.09375 1.34375 -0.179688 0.96875 -0.734375 Z M 0.96875 -0.734375 "/></g></g></g><g fill="#403737" fill-opacity="1"><g transform="translate(197.97602, 253.937558)"><g><path d="M 3.546875 0 L 0.4375 0 C 0.363281 0 0.328125 -0.03125 0.328125 -0.09375 L 0.328125 -0.171875 C 0.328125 -0.210938 0.34375 -0.257812 0.375 -0.3125 C 0.625 -0.695312 0.925781 -1.140625 1.28125 -1.640625 C 1.644531 -2.140625 1.914062 -2.519531 2.09375 -2.78125 C 2.28125 -3.050781 2.445312 -3.34375 2.59375 -3.65625 C 2.738281 -3.976562 2.8125 -4.285156 2.8125 -4.578125 C 2.8125 -4.878906 2.722656 -5.125 2.546875 -5.3125 C 2.378906 -5.5 2.148438 -5.59375 1.859375 -5.59375 C 1.578125 -5.59375 1.351562 -5.5 1.1875 -5.3125 C 1.019531 -5.125 0.898438 -4.914062 0.828125 -4.6875 C 0.804688 -4.582031 0.75 -4.53125 0.65625 -4.53125 C 0.613281 -4.53125 0.578125 -4.546875 0.546875 -4.578125 C 0.523438 -4.609375 0.515625 -4.644531 0.515625 -4.6875 L 0.515625 -5.34375 C 0.515625 -5.457031 0.65625 -5.578125 0.9375 -5.703125 C 1.226562 -5.835938 1.554688 -5.90625 1.921875 -5.90625 C 2.429688 -5.90625 2.832031 -5.769531 3.125 -5.5 C 3.425781 -5.238281 3.578125 -4.898438 3.578125 -4.484375 C 3.578125 -4.210938 3.507812 -3.9375 3.375 -3.65625 C 3.25 -3.375 3.097656 -3.125 2.921875 -2.90625 C 2.742188 -2.695312 2.46875 -2.367188 2.09375 -1.921875 C 1.726562 -1.472656 1.410156 -1.066406 1.140625 -0.703125 L 3.1875 -0.703125 C 3.375 -0.703125 3.488281 -0.742188 3.53125 -0.828125 C 3.582031 -0.921875 3.640625 -0.96875 3.703125 -0.96875 C 3.785156 -0.96875 3.820312 -0.914062 3.8125 -0.8125 L 3.765625 -0.265625 C 3.753906 -0.179688 3.726562 -0.113281 3.6875 -0.0625 C 3.644531 -0.0195312 3.597656 0 3.546875 0 Z M 3.546875 0 "/></g></g></g><g fill="#403737" fill-opacity="1"><g transform="translate(203.540669, 253.937558)"><g><path d="M 3.546875 0 L 0.4375 0 C 0.363281 0 0.328125 -0.03125 0.328125 -0.09375 L 0.328125 -0.171875 C 0.328125 -0.210938 0.34375 -0.257812 0.375 -0.3125 C 0.625 -0.695312 0.925781 -1.140625 1.28125 -1.640625 C 1.644531 -2.140625 1.914062 -2.519531 2.09375 -2.78125 C 2.28125 -3.050781 2.445312 -3.34375 2.59375 -3.65625 C 2.738281 -3.976562 2.8125 -4.285156 2.8125 -4.578125 C 2.8125 -4.878906 2.722656 -5.125 2.546875 -5.3125 C 2.378906 -5.5 2.148438 -5.59375 1.859375 -5.59375 C 1.578125 -5.59375 1.351562 -5.5 1.1875 -5.3125 C 1.019531 -5.125 0.898438 -4.914062 0.828125 -4.6875 C 0.804688 -4.582031 0.75 -4.53125 0.65625 -4.53125 C 0.613281 -4.53125 0.578125 -4.546875 0.546875 -4.578125 C 0.523438 -4.609375 0.515625 -4.644531 0.515625 -4.6875 L 0.515625 -5.34375 C 0.515625 -5.457031 0.65625 -5.578125 0.9375 -5.703125 C 1.226562 -5.835938 1.554688 -5.90625 1.921875 -5.90625 C 2.429688 -5.90625 2.832031 -5.769531 3.125 -5.5 C 3.425781 -5.238281 3.578125 -4.898438 3.578125 -4.484375 C 3.578125 -4.210938 3.507812 -3.9375 3.375 -3.65625 C 3.25 -3.375 3.097656 -3.125 2.921875 -2.90625 C 2.742188 -2.695312 2.46875 -2.367188 2.09375 -1.921875 C 1.726562 -1.472656 1.410156 -1.066406 1.140625 -0.703125 L 3.1875 -0.703125 C 3.375 -0.703125 3.488281 -0.742188 3.53125 -0.828125 C 3.582031 -0.921875 3.640625 -0.96875 3.703125 -0.96875 C 3.785156 -0.96875 3.820312 -0.914062 3.8125 -0.8125 L 3.765625 -0.265625 C 3.753906 -0.179688 3.726562 -0.113281 3.6875 -0.0625 C 3.644531 -0.0195312 3.597656 0 3.546875 0 Z M 3.546875 0 "/></g></g></g><g fill="#403737" fill-opacity="1"><g transform="translate(219.478377, 100.19676)"><g><path d="M 3.8125 -1.921875 L 6.265625 -0.859375 C 6.347656 -0.816406 6.394531 -0.859375 6.40625 -0.984375 L 6.5625 -4.90625 L 3.765625 -2.09375 C 3.710938 -2.019531 3.726562 -1.960938 3.8125 -1.921875 Z M 1.78125 -0.09375 C 1.757812 -0.0390625 1.738281 0.0078125 1.71875 0.0625 C 1.695312 0.113281 1.695312 0.1875 1.71875 0.28125 C 1.75 0.382812 1.816406 0.460938 1.921875 0.515625 L 2.125 0.609375 C 2.207031 0.671875 2.234375 0.742188 2.203125 0.828125 C 2.160156 0.929688 2.085938 0.960938 1.984375 0.921875 L 1.046875 0.453125 L 0.03125 0.0625 C -0.0703125 0.0195312 -0.101562 -0.0507812 -0.0625 -0.15625 C -0.0195312 -0.257812 0.0390625 -0.296875 0.125 -0.265625 L 0.34375 -0.171875 C 0.664062 -0.078125 0.941406 -0.140625 1.171875 -0.359375 L 7.0625 -6.09375 C 7.113281 -6.175781 7.210938 -6.1875 7.359375 -6.125 C 7.503906 -6.0625 7.578125 -5.972656 7.578125 -5.859375 L 7.34375 2.328125 C 7.320312 2.648438 7.472656 2.898438 7.796875 3.078125 L 8 3.171875 C 8.03125 3.179688 8.050781 3.207031 8.0625 3.25 C 8.082031 3.289062 8.082031 3.332031 8.0625 3.375 C 8.019531 3.476562 7.941406 3.507812 7.828125 3.46875 L 6.59375 2.875 L 5.4375 2.421875 C 5.332031 2.378906 5.296875 2.3125 5.328125 2.21875 C 5.378906 2.113281 5.445312 2.070312 5.53125 2.09375 L 5.8125 2.203125 C 5.90625 2.234375 6 2.226562 6.09375 2.1875 C 6.1875 2.15625 6.242188 2.109375 6.265625 2.046875 C 6.285156 1.992188 6.296875 1.9375 6.296875 1.875 L 6.375 -0.09375 C 6.382812 -0.164062 6.34375 -0.222656 6.25 -0.265625 L 3.40625 -1.515625 C 3.300781 -1.554688 3.222656 -1.546875 3.171875 -1.484375 Z M 1.78125 -0.09375 "/></g></g></g><g fill="#403737" fill-opacity="1"><g transform="translate(232.427614, 106.358093)"><g><path d="M 6.859375 -1.25 C 7.359375 -1.351562 7.75 -1.632812 8.03125 -2.09375 C 8.320312 -2.5625 8.398438 -3.03125 8.265625 -3.5 C 8.140625 -3.976562 7.796875 -4.394531 7.234375 -4.75 L 6.625 -5.140625 C 6.351562 -5.304688 6.140625 -5.257812 5.984375 -5 L 4.359375 -2.40625 C 4.296875 -2.3125 4.300781 -2.242188 4.375 -2.203125 L 5.28125 -1.625 C 5.84375 -1.269531 6.367188 -1.144531 6.859375 -1.25 Z M 7.734375 -5.0625 C 8.515625 -4.582031 9.007812 -4.023438 9.21875 -3.390625 C 9.4375 -2.753906 9.359375 -2.140625 8.984375 -1.546875 C 8.617188 -0.953125 8.097656 -0.59375 7.421875 -0.46875 C 6.742188 -0.34375 6.050781 -0.503906 5.34375 -0.953125 L 4.140625 -1.703125 C 4.035156 -1.765625 3.957031 -1.757812 3.90625 -1.6875 L 2.46875 0.609375 C 2.394531 0.734375 2.378906 0.859375 2.421875 0.984375 C 2.460938 1.117188 2.539062 1.226562 2.65625 1.3125 L 3.078125 1.59375 C 3.160156 1.644531 3.171875 1.71875 3.109375 1.8125 C 3.046875 1.90625 2.96875 1.921875 2.875 1.859375 L 1.625 1.015625 L 0.46875 0.359375 C 0.363281 0.296875 0.335938 0.222656 0.390625 0.140625 C 0.453125 0.046875 0.53125 0.0195312 0.625 0.0625 L 0.921875 0.234375 C 1.210938 0.367188 1.4375 0.3125 1.59375 0.0625 L 5.21875 -5.734375 C 5.363281 -5.972656 5.296875 -6.195312 5.015625 -6.40625 L 4.734375 -6.640625 C 4.660156 -6.691406 4.648438 -6.757812 4.703125 -6.84375 C 4.753906 -6.9375 4.832031 -6.953125 4.9375 -6.890625 L 6.3125 -5.96875 Z M 7.734375 -5.0625 "/></g></g></g><g fill="#403737" fill-opacity="1"><g transform="translate(243.15252, 113.551393)"><g><path d="M 6.984375 -0.28125 C 7.484375 -0.3125 7.910156 -0.535156 8.265625 -0.953125 C 8.617188 -1.367188 8.765625 -1.820312 8.703125 -2.3125 C 8.640625 -2.800781 8.351562 -3.257812 7.84375 -3.6875 L 7.28125 -4.15625 C 7.050781 -4.351562 6.835938 -4.332031 6.640625 -4.09375 L 4.65625 -1.765625 C 4.59375 -1.679688 4.59375 -1.613281 4.65625 -1.5625 L 5.46875 -0.875 C 5.976562 -0.445312 6.484375 -0.25 6.984375 -0.28125 Z M 8.390625 -3.921875 C 9.085938 -3.328125 9.5 -2.703125 9.625 -2.046875 C 9.75 -1.398438 9.582031 -0.804688 9.125 -0.265625 C 8.675781 0.265625 8.101562 0.546875 7.40625 0.578125 C 6.71875 0.609375 6.050781 0.351562 5.40625 -0.1875 L 4.328125 -1.109375 C 4.242188 -1.179688 4.171875 -1.179688 4.109375 -1.109375 L 2.375 0.953125 C 2.28125 1.066406 2.242188 1.191406 2.265625 1.328125 C 2.285156 1.460938 2.347656 1.578125 2.453125 1.671875 L 2.828125 2 C 2.898438 2.0625 2.898438 2.132812 2.828125 2.21875 C 2.753906 2.300781 2.671875 2.304688 2.578125 2.234375 L 1.46875 1.234375 L 0.421875 0.40625 C 0.328125 0.332031 0.3125 0.257812 0.375 0.1875 C 0.445312 0.101562 0.523438 0.0859375 0.609375 0.140625 L 0.875 0.34375 C 1.144531 0.53125 1.378906 0.507812 1.578125 0.28125 L 5.984375 -4.9375 C 6.160156 -5.15625 6.117188 -5.390625 5.859375 -5.640625 L 5.625 -5.890625 C 5.5625 -5.960938 5.5625 -6.035156 5.625 -6.109375 C 5.695312 -6.191406 5.773438 -6.195312 5.859375 -6.125 L 7.09375 -5.015625 Z M 8.390625 -3.921875 "/></g></g></g><g fill="#403737" fill-opacity="1"><g transform="translate(252.765389, 122.142316)"><g><path d="M 4.28125 -0.125 L 6.046875 1.890625 C 6.109375 1.960938 6.164062 1.945312 6.21875 1.84375 L 8.03125 -1.65625 L 4.296875 -0.296875 C 4.222656 -0.242188 4.21875 -0.1875 4.28125 -0.125 Z M 1.65625 0.671875 C 1.613281 0.710938 1.566406 0.75 1.515625 0.78125 C 1.472656 0.820312 1.441406 0.890625 1.421875 0.984375 C 1.410156 1.085938 1.441406 1.179688 1.515625 1.265625 L 1.671875 1.46875 C 1.722656 1.550781 1.71875 1.625 1.65625 1.6875 C 1.570312 1.757812 1.488281 1.753906 1.40625 1.671875 L 0.75 0.859375 L 0 0.0625 C -0.0703125 -0.0195312 -0.0664062 -0.0976562 0.015625 -0.171875 C 0.0976562 -0.242188 0.171875 -0.242188 0.234375 -0.171875 L 0.375 -0.03125 C 0.632812 0.207031 0.914062 0.273438 1.21875 0.171875 L 8.96875 -2.515625 C 9.0625 -2.554688 9.160156 -2.519531 9.265625 -2.40625 C 9.367188 -2.289062 9.398438 -2.1875 9.359375 -2.09375 L 5.65625 5.234375 C 5.507812 5.503906 5.535156 5.785156 5.734375 6.078125 L 5.90625 6.28125 C 5.925781 6.300781 5.929688 6.332031 5.921875 6.375 C 5.910156 6.414062 5.890625 6.453125 5.859375 6.484375 C 5.773438 6.554688 5.695312 6.546875 5.625 6.453125 L 4.75 5.390625 L 3.90625 4.5 C 3.820312 4.414062 3.816406 4.34375 3.890625 4.28125 C 3.972656 4.207031 4.050781 4.203125 4.125 4.265625 L 4.3125 4.453125 C 4.394531 4.535156 4.484375 4.578125 4.578125 4.578125 C 4.679688 4.578125 4.753906 4.554688 4.796875 4.515625 C 4.847656 4.472656 4.882812 4.425781 4.90625 4.375 L 5.8125 2.625 C 5.851562 2.5625 5.84375 2.488281 5.78125 2.40625 L 3.71875 0.078125 C 3.65625 -0.00390625 3.582031 -0.03125 3.5 0 Z M 1.65625 0.671875 "/></g></g></g><g fill="#403737" fill-opacity="1"><g transform="translate(261.879235, 133.198568)"><g><path d="M 7.109375 1.875 C 7.578125 2.019531 8.023438 1.957031 8.453125 1.6875 C 8.878906 1.414062 9.117188 1.039062 9.171875 0.5625 C 9.222656 0.09375 9.101562 -0.375 8.8125 -0.84375 L 8.203125 -1.796875 C 8.023438 -2.054688 7.800781 -2.101562 7.53125 -1.9375 L 5.25 -0.484375 C 5.15625 -0.421875 5.132812 -0.359375 5.1875 -0.296875 L 5.984375 0.953125 C 6.273438 1.421875 6.648438 1.726562 7.109375 1.875 Z M 9.46875 -0.796875 C 9.882812 -0.140625 10.054688 0.5 9.984375 1.125 C 9.921875 1.75 9.617188 2.234375 9.078125 2.578125 C 8.535156 2.921875 7.953125 3.003906 7.328125 2.828125 C 6.710938 2.648438 6.25 2.3125 5.9375 1.8125 L 5.890625 1.828125 C 5.941406 1.992188 5.925781 2.160156 5.84375 2.328125 L 4.40625 5.40625 C 4.25 5.695312 4.25 6.007812 4.40625 6.34375 L 4.515625 6.53125 C 4.546875 6.625 4.53125 6.695312 4.46875 6.75 C 4.363281 6.8125 4.273438 6.789062 4.203125 6.6875 C 3.828125 6.019531 3.585938 5.609375 3.484375 5.453125 C 3.378906 5.296875 3.367188 5.128906 3.453125 4.953125 L 5.203125 1.4375 C 5.328125 1.164062 5.335938 0.945312 5.234375 0.78125 C 5.234375 0.78125 5.226562 0.773438 5.21875 0.765625 L 4.75 0.046875 C 4.6875 -0.046875 4.613281 -0.0664062 4.53125 -0.015625 L 1.96875 1.625 C 1.84375 1.695312 1.769531 1.796875 1.75 1.921875 C 1.738281 2.054688 1.769531 2.191406 1.84375 2.328125 L 2.09375 2.75 C 2.144531 2.832031 2.125 2.90625 2.03125 2.96875 C 1.9375 3.03125 1.859375 3.015625 1.796875 2.921875 L 1.03125 1.625 L 0.265625 0.53125 C 0.210938 0.445312 0.222656 0.367188 0.296875 0.296875 C 0.390625 0.234375 0.46875 0.234375 0.53125 0.296875 L 0.734375 0.609375 C 0.941406 0.859375 1.171875 0.90625 1.421875 0.75 L 7.171875 -2.9375 C 7.410156 -3.082031 7.441406 -3.316406 7.265625 -3.640625 L 7.125 -3.96875 C 7.082031 -4.050781 7.097656 -4.117188 7.171875 -4.171875 C 7.265625 -4.222656 7.34375 -4.195312 7.40625 -4.09375 L 8.25 -2.6875 Z M 9.46875 -0.796875 "/></g></g></g><g fill="#403737" fill-opacity="1"><g transform="translate(268.883302, 144.969247)"><g><path d="M 2.609375 5.828125 L 0.765625 1.71875 L 0.171875 0.5 C 0.117188 0.394531 0.140625 0.320312 0.234375 0.28125 C 0.335938 0.238281 0.410156 0.257812 0.453125 0.34375 L 0.609375 0.640625 C 0.691406 0.773438 0.789062 0.875 0.90625 0.9375 C 1.03125 1 1.160156 1 1.296875 0.9375 L 7.515625 -1.84375 C 7.773438 -1.957031 7.847656 -2.191406 7.734375 -2.546875 L 7.640625 -2.875 C 7.597656 -2.957031 7.625 -3.019531 7.71875 -3.0625 C 7.8125 -3.101562 7.882812 -3.070312 7.9375 -2.96875 L 8.4375 -1.71875 L 10.1875 2.1875 C 10.25 2.3125 10.257812 2.4375 10.21875 2.5625 C 10.175781 2.695312 10.097656 2.796875 9.984375 2.859375 L 9.03125 3.46875 C 8.90625 3.550781 8.816406 3.53125 8.765625 3.40625 C 8.710938 3.28125 8.734375 3.171875 8.828125 3.078125 C 9.128906 2.816406 9.304688 2.539062 9.359375 2.25 C 9.410156 1.96875 9.347656 1.632812 9.171875 1.25 L 8.390625 -0.484375 C 8.328125 -0.640625 8.226562 -0.742188 8.09375 -0.796875 C 7.957031 -0.859375 7.804688 -0.851562 7.640625 -0.78125 L 5.328125 0.25 C 5.234375 0.289062 5.207031 0.363281 5.25 0.46875 L 6.171875 2.5 C 6.210938 2.59375 6.269531 2.660156 6.34375 2.703125 C 6.425781 2.742188 6.492188 2.765625 6.546875 2.765625 C 6.609375 2.765625 6.703125 2.75 6.828125 2.71875 L 6.984375 2.703125 C 7.097656 2.691406 7.171875 2.726562 7.203125 2.8125 C 7.242188 2.894531 7.210938 2.960938 7.109375 3.015625 L 6.15625 3.390625 L 5.28125 3.828125 C 5.1875 3.867188 5.113281 3.847656 5.0625 3.765625 C 5.019531 3.679688 5.035156 3.609375 5.109375 3.546875 L 5.3125 3.421875 C 5.65625 3.191406 5.773438 2.960938 5.671875 2.734375 L 4.75 0.6875 C 4.707031 0.59375 4.632812 0.566406 4.53125 0.609375 L 2 1.75 C 1.84375 1.820312 1.738281 1.925781 1.6875 2.0625 C 1.644531 2.207031 1.65625 2.359375 1.71875 2.515625 L 2.53125 4.328125 C 2.707031 4.710938 2.945312 5 3.25 5.1875 C 3.5625 5.375 3.921875 5.441406 4.328125 5.390625 C 4.472656 5.367188 4.5625 5.398438 4.59375 5.484375 C 4.632812 5.578125 4.640625 5.648438 4.609375 5.703125 C 4.585938 5.753906 4.546875 5.785156 4.484375 5.796875 L 3.265625 6.125 C 3.140625 6.164062 3.015625 6.160156 2.890625 6.109375 C 2.765625 6.054688 2.671875 5.960938 2.609375 5.828125 Z M 2.609375 5.828125 "/></g></g></g><g fill="#403737" fill-opacity="1"><g transform="translate(273.948713, 157.334144)"><g><path d="M 7.984375 0.234375 L 1.71875 2.03125 C 1.5625 2.070312 1.445312 2.15625 1.375 2.28125 C 1.3125 2.40625 1.304688 2.554688 1.359375 2.734375 L 1.828125 4.40625 C 1.953125 4.820312 2.148438 5.144531 2.421875 5.375 C 2.703125 5.613281 3.046875 5.734375 3.453125 5.734375 C 3.597656 5.742188 3.6875 5.804688 3.71875 5.921875 C 3.75 6.046875 3.695312 6.125 3.5625 6.15625 L 2.296875 6.3125 C 2.160156 6.332031 2.035156 6.304688 1.921875 6.234375 C 1.804688 6.160156 1.726562 6.054688 1.6875 5.921875 L 0.515625 1.8125 L 0.09375 0.53125 C 0.0625 0.414062 0.0976562 0.34375 0.203125 0.3125 C 0.304688 0.28125 0.375 0.3125 0.40625 0.40625 L 0.515625 0.734375 C 0.578125 0.867188 0.660156 0.976562 0.765625 1.0625 C 0.878906 1.144531 1.003906 1.164062 1.140625 1.125 L 7.703125 -0.75 C 7.972656 -0.820312 8.078125 -1.039062 8.015625 -1.40625 L 7.96875 -1.75 C 7.945312 -1.84375 7.984375 -1.90625 8.078125 -1.9375 C 8.171875 -1.957031 8.234375 -1.910156 8.265625 -1.796875 L 8.59375 -0.484375 L 8.96875 0.640625 C 9 0.753906 8.972656 0.820312 8.890625 0.84375 C 8.773438 0.875 8.703125 0.835938 8.671875 0.734375 L 8.578125 0.5625 C 8.429688 0.269531 8.234375 0.160156 7.984375 0.234375 Z M 7.984375 0.234375 "/></g></g></g></svg>